<?xml version="1.0" encoding="utf-8"?>
<!-- Generator: Adobe Illustrator 21.0.2, SVG Export Plug-In . SVG Version: 6.00 Build 0)  -->
<svg version="1.1" id="Layer_1" xmlns="http://www.w3.org/2000/svg" xmlns:xlink="http://www.w3.org/1999/xlink" x="0px" y="0px"
	 viewBox="0 0 220 50" style="enable-background:new 0 0 220 50;" xml:space="preserve">
<style type="text/css">
	.st0{fill:#EB4036;}
	.st1{fill:#1E1B1C;}
	.st2{fill:#FFFFFF;}
	.st3{fill:none;stroke:#231F20;stroke-miterlimit:10;}
	.st4{fill-rule:evenodd;clip-rule:evenodd;fill:#231F20;}
	.st5{fill:none;stroke:#231F20;stroke-width:0.3861;stroke-miterlimit:10;}
	.st6{fill:none;stroke:#FFFFFF;stroke-width:0.3861;stroke-miterlimit:10;}
	.st7{fill:none;stroke:#231F20;stroke-width:0.5;stroke-miterlimit:10;}
	.st8{fill:#231F20;}
	.st9{fill-rule:evenodd;clip-rule:evenodd;fill:#1E1B1C;}
	.st10{fill-rule:evenodd;clip-rule:evenodd;fill:#FFFFFF;}
	.st11{fill:none;stroke:#FFFFFF;stroke-width:0.8555;stroke-miterlimit:10;}
</style>
<g>
	<path class="st1" d="M12.6,12.1h5.3v10.7l10-10.7h7L24.3,22.8L35.5,38h-7l-8-11.3l-2.6,2.6V38h-5.3V12.1z"/>
	<path class="st1" d="M63.8,35.7c-2,2-4.8,3-8.5,3c-3.7,0-6.5-1-8.5-3c-2.6-2.5-3.9-6-3.9-10.7c0-4.7,1.3-8.3,3.9-10.7
		c2-2,4.8-3,8.5-3c3.7,0,6.5,1,8.5,3c2.6,2.4,3.9,5.9,3.9,10.7C67.7,29.7,66.4,33.2,63.8,35.7z M60.4,31.8c1.3-1.6,1.9-3.8,1.9-6.7
		c0-2.9-0.6-5.1-1.9-6.7c-1.3-1.6-3-2.4-5.1-2.4c-2.1,0-3.8,0.8-5.1,2.4c-1.3,1.6-1.9,3.8-1.9,6.7c0,2.9,0.6,5.2,1.9,6.7
		c1.3,1.6,3,2.4,5.1,2.4C57.5,34.1,59.2,33.3,60.4,31.8z"/>
	<path class="st1" d="M81.1,30c0.2,1.2,0.5,2.1,1,2.7c0.9,1.1,2.4,1.6,4.6,1.6c1.3,0,2.4-0.1,3.2-0.4c1.5-0.5,2.3-1.5,2.3-3
		c0-0.9-0.4-1.5-1.1-2c-0.8-0.5-2-0.9-3.6-1.2L84.7,27c-2.8-0.6-4.6-1.3-5.7-2c-1.7-1.2-2.6-3.1-2.6-5.6c0-2.3,0.9-4.2,2.6-5.8
		c1.7-1.5,4.2-2.3,7.5-2.3c2.8,0,5.1,0.7,7.1,2.2c1.9,1.4,3,3.5,3.1,6.3h-5.2c-0.1-1.6-0.8-2.7-2.1-3.3c-0.9-0.4-1.9-0.6-3.2-0.6
		c-1.4,0-2.6,0.3-3.4,0.8c-0.9,0.6-1.3,1.3-1.3,2.4c0,0.9,0.4,1.6,1.3,2.1c0.5,0.3,1.7,0.7,3.4,1.1l4.5,1.1c2,0.5,3.5,1.1,4.5,1.9
		c1.5,1.2,2.3,3,2.3,5.3c0,2.4-0.9,4.3-2.7,5.9c-1.8,1.6-4.4,2.3-7.7,2.3c-3.4,0-6.1-0.8-8-2.3C77,34.8,76,32.7,76,30H81.1z"/>
	<path class="st1" d="M111.6,38h-5.4V12.1h5.4V38z"/>
	<path class="st1" d="M122,12.1h5.5V28c0,1.8,0.2,3.1,0.6,3.9c0.7,1.5,2.1,2.2,4.3,2.2c2.2,0,3.6-0.7,4.3-2.2
		c0.4-0.8,0.6-2.1,0.6-3.9V12.1h5.5V28c0,2.8-0.4,4.9-1.3,6.4c-1.6,2.8-4.6,4.2-9.1,4.2c-4.5,0-7.5-1.4-9.1-4.2
		c-0.9-1.5-1.3-3.7-1.3-6.4V12.1z"/>
	<path class="st1" d="M153.4,12.1h5.3v10.7l10-10.7h7l-10.6,10.6L176.3,38h-7l-8-11.3l-2.6,2.6V38h-5.3V12.1z"/>
	<path class="st1" d="M204.6,35.7c-2,2-4.8,3-8.5,3c-3.7,0-6.5-1-8.5-3c-2.6-2.5-3.9-6-3.9-10.7c0-4.7,1.3-8.3,3.9-10.7
		c2-2,4.8-3,8.5-3c3.7,0,6.5,1,8.5,3c2.6,2.4,3.9,5.9,3.9,10.7C208.6,29.7,207.2,33.2,204.6,35.7z M201.3,31.8
		c1.3-1.6,1.9-3.8,1.9-6.7c0-2.9-0.6-5.1-1.9-6.7c-1.3-1.6-3-2.4-5.1-2.4c-2.1,0-3.9,0.8-5.1,2.4c-1.3,1.6-1.9,3.8-1.9,6.7
		c0,2.9,0.6,5.2,1.9,6.7c1.3,1.6,3,2.4,5.1,2.4C198.3,34.1,200,33.3,201.3,31.8z"/>
</g>
</svg>
